<svg width="280" height="38" viewBox="0 0 280 38" fill="none" xmlns="http://www.w3.org/2000/svg">
<path d="M8.48 29.4C6.77333 29.4 5.26667 29.08 3.96 28.44C2.68 27.7733 1.61333 26.88 0.76 25.76L4.44 22.24C4.92 22.9333 5.49333 23.4667 6.16 23.84C6.85333 24.1867 7.61333 24.36 8.44 24.36C9.26667 24.36 9.98667 24.1867 10.6 23.84C11.24 23.4933 11.72 22.9867 12.04 22.32C12.3867 21.6533 12.56 20.84 12.56 19.88V0.88H18.04V19.56C18.04 21.5333 17.64 23.2667 16.84 24.76C16.0667 26.2267 14.96 27.3733 13.52 28.2C12.1067 29 10.4267 29.4 8.48 29.4ZM31.5078 29.4C29.5611 29.4 27.8011 28.96 26.2278 28.08C24.6811 27.1733 23.4411 25.96 22.5078 24.44C21.6011 22.8933 21.1478 21.1733 21.1478 19.28C21.1478 17.3867 21.6011 15.6933 22.5078 14.2C23.4145 12.68 24.6545 11.48 26.2278 10.6C27.8011 9.69333 29.5478 9.24 31.4678 9.24C33.4411 9.24 35.2011 9.69333 36.7478 10.6C38.3211 11.48 39.5611 12.68 40.4678 14.2C41.3745 15.6933 41.8278 17.3867 41.8278 19.28C41.8278 21.1733 41.3745 22.8933 40.4678 24.44C39.5611 25.96 38.3211 27.1733 36.7478 28.08C35.2011 28.96 33.4545 29.4 31.5078 29.4ZM31.4678 24.52C32.4545 24.52 33.3211 24.3067 34.0678 23.88C34.8411 23.4267 35.4278 22.8133 35.8278 22.04C36.2545 21.24 36.4678 20.3333 36.4678 19.32C36.4678 18.3067 36.2545 17.4133 35.8278 16.64C35.4011 15.8667 34.8145 15.2667 34.0678 14.84C33.3211 14.3867 32.4545 14.16 31.4678 14.16C30.5078 14.16 29.6545 14.3867 28.9078 14.84C28.1611 15.2667 27.5745 15.8667 27.1478 16.64C26.7211 17.4133 26.5078 18.3067 26.5078 19.32C26.5078 20.3333 26.7211 21.24 27.1478 22.04C27.5745 22.8133 28.1611 23.4267 28.9078 23.88C29.6545 24.3067 30.5078 24.52 31.4678 24.52ZM52.8813 29.4C51.1213 29.4 49.5346 28.96 48.1213 28.08C46.7079 27.2 45.6013 26 44.8013 24.48C44.0013 22.96 43.6013 21.2533 43.6013 19.36C43.6013 17.44 44.0013 15.72 44.8013 14.2C45.6013 12.68 46.7079 11.48 48.1213 10.6C49.5346 9.72 51.1213 9.28 52.8813 9.28C54.2679 9.28 55.5079 9.56 56.6013 10.12C57.6946 10.68 58.5613 11.4667 59.2013 12.48C59.8679 13.4667 60.2279 14.5867 60.2813 15.84V22.8C60.2279 24.08 59.8679 25.2133 59.2013 26.2C58.5613 27.1867 57.6946 27.9733 56.6013 28.56C55.5079 29.12 54.2679 29.4 52.8813 29.4ZM53.8413 24.56C55.3079 24.56 56.4946 24.08 57.4013 23.12C58.3079 22.1333 58.7613 20.8667 58.7613 19.32C58.7613 18.3067 58.5479 17.4133 58.1213 16.64C57.7213 15.84 57.1479 15.2267 56.4013 14.8C55.6813 14.3467 54.8279 14.12 53.8413 14.12C52.8813 14.12 52.0279 14.3467 51.2813 14.8C50.5613 15.2267 49.9879 15.84 49.5613 16.64C49.1613 17.4133 48.9613 18.3067 48.9613 19.32C48.9613 20.36 49.1613 21.28 49.5613 22.08C49.9879 22.8533 50.5613 23.4667 51.2813 23.92C52.0279 24.3467 52.8813 24.56 53.8413 24.56ZM58.4813 29V23.8L59.3213 19.08L58.4813 14.44V9.68H63.6813V29H58.4813ZM80.2369 29L72.7569 19.04L80.1969 9.68H86.2369L77.5169 20.24L77.7169 17.68L86.6369 29H80.2369ZM67.9169 29V0.079998H73.1569V29H67.9169ZM87.9466 29V9.68H93.2266V29H87.9466ZM90.5866 6.56C89.7332 6.56 89.0266 6.28 88.4666 5.72C87.9066 5.13333 87.6266 4.41333 87.6266 3.56C87.6266 2.73333 87.9066 2.02667 88.4666 1.44C89.0266 0.853333 89.7332 0.559999 90.5866 0.559999C91.4666 0.559999 92.1732 0.853333 92.7066 1.44C93.2666 2.02667 93.5466 2.73333 93.5466 3.56C93.5466 4.41333 93.2666 5.13333 92.7066 5.72C92.1732 6.28 91.4666 6.56 90.5866 6.56ZM97.4684 29V9.68H102.708V29H97.4684ZM110.068 29V17.6C110.068 16.48 109.708 15.6133 108.988 15C108.295 14.36 107.428 14.04 106.388 14.04C105.695 14.04 105.068 14.1867 104.508 14.48C103.948 14.7467 103.508 15.1467 103.188 15.68C102.868 16.2133 102.708 16.8533 102.708 17.6L100.668 16.6C100.668 15.1067 100.988 13.8133 101.628 12.72C102.295 11.6267 103.188 10.7867 104.308 10.2C105.428 9.58667 106.695 9.28 108.108 9.28C109.442 9.28 110.655 9.58667 111.748 10.2C112.842 10.7867 113.708 11.6267 114.348 12.72C114.988 13.7867 115.308 15.08 115.308 16.6V29H110.068ZM122.668 29V17.6C122.668 16.48 122.308 15.6133 121.588 15C120.895 14.36 120.028 14.04 118.988 14.04C118.322 14.04 117.695 14.1867 117.108 14.48C116.548 14.7467 116.108 15.1467 115.788 15.68C115.468 16.2133 115.308 16.8533 115.308 17.6L112.308 16.88C112.415 15.3333 112.828 14 113.548 12.88C114.268 11.7333 115.215 10.8533 116.388 10.24C117.562 9.6 118.868 9.28 120.308 9.28C121.748 9.28 123.042 9.58667 124.188 10.2C125.335 10.7867 126.242 11.64 126.908 12.76C127.575 13.88 127.908 15.2133 127.908 16.76V29H122.668ZM139.728 29V0.88H145.168V29H139.728ZM157.368 29V0.88H162.808V29H157.368ZM143.168 16.88V12.08H158.888V16.88H143.168ZM176.837 29.4C174.81 29.4 173.01 28.9733 171.437 28.12C169.863 27.24 168.61 26.04 167.677 24.52C166.77 23 166.317 21.2667 166.317 19.32C166.317 17.4 166.757 15.6933 167.637 14.2C168.543 12.68 169.77 11.48 171.317 10.6C172.863 9.69333 174.583 9.24 176.477 9.24C178.343 9.24 179.983 9.66667 181.397 10.52C182.837 11.3467 183.957 12.4933 184.757 13.96C185.583 15.4 185.997 17.04 185.997 18.88C185.997 19.2267 185.97 19.5867 185.917 19.96C185.89 20.3067 185.823 20.7067 185.717 21.16L169.477 21.2V17.28L183.277 17.24L181.157 18.88C181.103 17.7333 180.89 16.7733 180.517 16C180.17 15.2267 179.65 14.64 178.957 14.24C178.29 13.8133 177.463 13.6 176.477 13.6C175.437 13.6 174.53 13.84 173.757 14.32C172.983 14.7733 172.383 15.4267 171.957 16.28C171.557 17.1067 171.357 18.0933 171.357 19.24C171.357 20.4133 171.57 21.44 171.997 22.32C172.45 23.1733 173.09 23.84 173.917 24.32C174.743 24.7733 175.703 25 176.797 25C177.783 25 178.677 24.84 179.477 24.52C180.277 24.1733 180.97 23.6667 181.557 23L184.637 26.08C183.703 27.1733 182.557 28 181.197 28.56C179.863 29.12 178.41 29.4 176.837 29.4ZM188.837 29V0.079998H194.077V29H188.837ZM206.4 37.56C204.347 37.56 202.533 37.1867 200.96 36.44C199.387 35.72 198.133 34.6933 197.2 33.36L200.52 30.04C201.267 30.92 202.093 31.5867 203 32.04C203.933 32.52 205.053 32.76 206.36 32.76C207.987 32.76 209.267 32.3467 210.2 31.52C211.16 30.6933 211.64 29.5467 211.64 28.08V23.24L212.52 19L211.68 14.76V9.68H216.88V28C216.88 29.92 216.427 31.5867 215.52 33C214.64 34.44 213.413 35.56 211.84 36.36C210.267 37.16 208.453 37.56 206.4 37.56ZM206.16 28.48C204.427 28.48 202.867 28.0667 201.48 27.24C200.093 26.3867 199 25.2267 198.2 23.76C197.427 22.2933 197.04 20.6533 197.04 18.84C197.04 17.0267 197.427 15.4 198.2 13.96C199 12.52 200.093 11.3867 201.48 10.56C202.867 9.70667 204.427 9.28 206.16 9.28C207.6 9.28 208.867 9.56 209.96 10.12C211.08 10.68 211.96 11.4533 212.6 12.44C213.24 13.4 213.587 14.5333 213.64 15.84V21.92C213.587 23.2 213.227 24.3467 212.56 25.36C211.92 26.3467 211.04 27.12 209.92 27.68C208.827 28.2133 207.573 28.48 206.16 28.48ZM207.2 23.72C208.16 23.72 208.987 23.52 209.68 23.12C210.4 22.6933 210.96 22.12 211.36 21.4C211.76 20.6533 211.96 19.8133 211.96 18.88C211.96 17.92 211.76 17.08 211.36 16.36C210.96 15.64 210.4 15.08 209.68 14.68C208.987 14.2533 208.16 14.04 207.2 14.04C206.24 14.04 205.4 14.2533 204.68 14.68C203.96 15.08 203.4 15.6533 203 16.4C202.6 17.12 202.4 17.9467 202.4 18.88C202.4 19.7867 202.6 20.6133 203 21.36C203.4 22.08 203.96 22.6533 204.68 23.08C205.4 23.5067 206.24 23.72 207.2 23.72ZM230.164 29.4C228.217 29.4 226.457 28.96 224.884 28.08C223.337 27.1733 222.097 25.96 221.164 24.44C220.257 22.8933 219.804 21.1733 219.804 19.28C219.804 17.3867 220.257 15.6933 221.164 14.2C222.071 12.68 223.311 11.48 224.884 10.6C226.457 9.69333 228.204 9.24 230.124 9.24C232.097 9.24 233.857 9.69333 235.404 10.6C236.977 11.48 238.217 12.68 239.124 14.2C240.031 15.6933 240.484 17.3867 240.484 19.28C240.484 21.1733 240.031 22.8933 239.124 24.44C238.217 25.96 236.977 27.1733 235.404 28.08C233.857 28.96 232.111 29.4 230.164 29.4ZM230.124 24.52C231.111 24.52 231.977 24.3067 232.724 23.88C233.497 23.4267 234.084 22.8133 234.484 22.04C234.911 21.24 235.124 20.3333 235.124 19.32C235.124 18.3067 234.911 17.4133 234.484 16.64C234.057 15.8667 233.471 15.2667 232.724 14.84C231.977 14.3867 231.111 14.16 230.124 14.16C229.164 14.16 228.311 14.3867 227.564 14.84C226.817 15.2667 226.231 15.8667 225.804 16.64C225.377 17.4133 225.164 18.3067 225.164 19.32C225.164 20.3333 225.377 21.24 225.804 22.04C226.231 22.8133 226.817 23.4267 227.564 23.88C228.311 24.3067 229.164 24.52 230.124 24.52ZM251.617 29.4C249.831 29.4 248.231 28.96 246.817 28.08C245.404 27.2 244.284 26 243.457 24.48C242.657 22.96 242.257 21.2533 242.257 19.36C242.257 17.44 242.657 15.72 243.457 14.2C244.284 12.68 245.391 11.48 246.777 10.6C248.191 9.72 249.804 9.28 251.617 9.28C253.004 9.28 254.244 9.56 255.337 10.12C256.457 10.68 257.351 11.4667 258.017 12.48C258.711 13.4667 259.084 14.5867 259.137 15.84V22.72C259.084 23.9733 258.724 25.1067 258.057 26.12C257.391 27.1333 256.497 27.9333 255.377 28.52C254.257 29.1067 253.004 29.4 251.617 29.4ZM252.497 24.56C253.484 24.56 254.337 24.3467 255.057 23.92C255.804 23.4667 256.377 22.8533 256.777 22.08C257.204 21.28 257.417 20.36 257.417 19.32C257.417 18.3067 257.204 17.4133 256.777 16.64C256.377 15.84 255.804 15.2267 255.057 14.8C254.337 14.3467 253.497 14.12 252.537 14.12C251.551 14.12 250.684 14.3467 249.937 14.8C249.217 15.2533 248.644 15.8667 248.217 16.64C247.817 17.4133 247.617 18.3067 247.617 19.32C247.617 20.36 247.817 21.28 248.217 22.08C248.644 22.8533 249.231 23.4667 249.977 23.92C250.724 24.3467 251.564 24.56 252.497 24.56ZM262.337 29H257.137V23.8L257.977 19.08L257.097 14.44V0.079998H262.337V29ZM269.413 29V1.64H274.653V29H269.413ZM264.893 14.28V9.68H279.173V14.28H264.893Z" fill="#79819A"/>
</svg>
