<svg width="218" height="23" viewBox="0 0 218 23" fill="none" xmlns="http://www.w3.org/2000/svg">
<path d="M0.728 18V1.128H3.992V18H0.728ZM3.128 11.088V8.184H11.624V11.088H3.128ZM3.128 4.008V1.128H12.032V4.008H3.128ZM18.731 18.24C17.707 18.24 16.795 18.024 15.995 17.592C15.211 17.16 14.595 16.56 14.147 15.792C13.699 15.024 13.475 14.136 13.475 13.128V6.408H16.643V13.056C16.643 13.536 16.723 13.952 16.883 14.304C17.043 14.64 17.283 14.896 17.603 15.072C17.923 15.248 18.299 15.336 18.731 15.336C19.387 15.336 19.899 15.136 20.267 14.736C20.635 14.336 20.819 13.776 20.819 13.056V6.408H23.963V13.128C23.963 14.152 23.739 15.048 23.291 15.816C22.859 16.584 22.243 17.184 21.443 17.616C20.659 18.032 19.755 18.24 18.731 18.24ZM25.9867 18V0.647999H29.1307V18H25.9867ZM31.4364 18V0.647999H34.5804V18H31.4364ZM36.8861 13.296V10.44H45.1901V13.296H36.8861ZM52.1615 18.24C50.8015 18.24 49.6335 18.008 48.6575 17.544C47.6975 17.08 46.8255 16.384 46.0415 15.456L48.2015 13.296C48.6975 13.952 49.2735 14.464 49.9295 14.832C50.5855 15.184 51.3855 15.36 52.3295 15.36C53.1775 15.36 53.8495 15.192 54.3455 14.856C54.8575 14.52 55.1135 14.056 55.1135 13.464C55.1135 12.952 54.9695 12.536 54.6815 12.216C54.3935 11.896 54.0095 11.624 53.5295 11.4C53.0655 11.176 52.5455 10.976 51.9695 10.8C51.4095 10.608 50.8415 10.392 50.2655 10.152C49.7055 9.912 49.1855 9.616 48.7055 9.264C48.2415 8.896 47.8655 8.432 47.5775 7.872C47.2895 7.296 47.1455 6.576 47.1455 5.712C47.1455 4.688 47.3935 3.816 47.8895 3.096C48.3855 2.376 49.0655 1.824 49.9295 1.44C50.7935 1.056 51.7695 0.863999 52.8575 0.863999C54.0095 0.863999 55.0495 1.08 55.9775 1.512C56.9055 1.944 57.6655 2.504 58.2575 3.192L56.0975 5.352C55.6015 4.808 55.0895 4.408 54.5615 4.152C54.0495 3.896 53.4655 3.768 52.8095 3.768C52.0575 3.768 51.4655 3.912 51.0335 4.2C50.6015 4.488 50.3855 4.904 50.3855 5.448C50.3855 5.912 50.5295 6.288 50.8175 6.576C51.1055 6.864 51.4815 7.112 51.9455 7.32C52.4255 7.528 52.9455 7.728 53.5055 7.92C54.0815 8.112 54.6495 8.328 55.2095 8.568C55.7855 8.808 56.3055 9.12 56.7695 9.504C57.2495 9.888 57.6335 10.384 57.9215 10.992C58.2095 11.584 58.3535 12.32 58.3535 13.2C58.3535 14.768 57.8015 16 56.6975 16.896C55.5935 17.792 54.0815 18.24 52.1615 18.24ZM61.8176 18V1.584H64.9616V18H61.8176ZM59.1056 9.168V6.408H67.6736V9.168H59.1056ZM73.5284 18.24C72.4724 18.24 71.5204 17.976 70.6724 17.448C69.8244 16.92 69.1604 16.2 68.6804 15.288C68.2004 14.376 67.9604 13.352 67.9604 12.216C67.9604 11.064 68.2004 10.032 68.6804 9.12C69.1604 8.208 69.8244 7.488 70.6724 6.96C71.5204 6.432 72.4724 6.168 73.5284 6.168C74.3604 6.168 75.1044 6.336 75.7604 6.672C76.4164 7.008 76.9364 7.48 77.3204 8.088C77.7204 8.68 77.9364 9.352 77.9684 10.104V14.28C77.9364 15.048 77.7204 15.728 77.3204 16.32C76.9364 16.912 76.4164 17.384 75.7604 17.736C75.1044 18.072 74.3604 18.24 73.5284 18.24ZM74.1044 15.336C74.9844 15.336 75.6964 15.048 76.2404 14.472C76.7844 13.88 77.0564 13.12 77.0564 12.192C77.0564 11.584 76.9284 11.048 76.6724 10.584C76.4324 10.104 76.0884 9.736 75.6404 9.48C75.2084 9.208 74.6964 9.072 74.1044 9.072C73.5284 9.072 73.0164 9.208 72.5684 9.48C72.1364 9.736 71.7924 10.104 71.5364 10.584C71.2964 11.048 71.1764 11.584 71.1764 12.192C71.1764 12.816 71.2964 13.368 71.5364 13.848C71.7924 14.312 72.1364 14.68 72.5684 14.952C73.0164 15.208 73.5284 15.336 74.1044 15.336ZM76.8884 18V14.88L77.3924 12.048L76.8884 9.264V6.408H80.0084V18H76.8884ZM87.7818 18.24C86.5978 18.24 85.5338 17.976 84.5898 17.448C83.6458 16.92 82.9018 16.2 82.3578 15.288C81.8138 14.376 81.5418 13.352 81.5418 12.216C81.5418 11.064 81.8138 10.032 82.3578 9.12C82.9018 8.208 83.6458 7.488 84.5898 6.96C85.5498 6.416 86.6138 6.144 87.7818 6.144C88.6938 6.144 89.5338 6.312 90.3018 6.648C91.0698 6.984 91.7338 7.464 92.2938 8.088L90.2778 10.128C89.9738 9.792 89.6058 9.536 89.1738 9.36C88.7578 9.184 88.2938 9.096 87.7818 9.096C87.2058 9.096 86.6858 9.232 86.2218 9.504C85.7738 9.76 85.4138 10.12 85.1418 10.584C84.8858 11.032 84.7578 11.568 84.7578 12.192C84.7578 12.8 84.8858 13.344 85.1418 13.824C85.4138 14.288 85.7738 14.656 86.2218 14.928C86.6858 15.184 87.2058 15.312 87.7818 15.312C88.3098 15.312 88.7818 15.224 89.1978 15.048C89.6298 14.856 89.9978 14.584 90.3018 14.232L92.3418 16.272C91.7498 16.912 91.0698 17.4 90.3018 17.736C89.5338 18.072 88.6938 18.24 87.7818 18.24ZM101.034 18L96.5463 12.024L101.01 6.408H104.634L99.4023 12.744L99.5223 11.208L104.874 18H101.034ZM93.6423 18V0.647999H96.7863V18H93.6423ZM112.618 18V15.096H116.914C118.002 15.096 118.954 14.872 119.77 14.424C120.586 13.96 121.218 13.312 121.666 12.48C122.13 11.648 122.362 10.664 122.362 9.528C122.362 8.424 122.13 7.464 121.666 6.648C121.202 5.816 120.562 5.176 119.746 4.728C118.93 4.264 117.986 4.032 116.914 4.032H112.546V1.128H116.962C118.21 1.128 119.362 1.336 120.418 1.752C121.49 2.168 122.418 2.76 123.202 3.528C124.002 4.28 124.618 5.168 125.05 6.192C125.498 7.216 125.722 8.336 125.722 9.552C125.722 10.768 125.498 11.896 125.05 12.936C124.618 13.96 124.01 14.856 123.226 15.624C122.442 16.376 121.514 16.96 120.442 17.376C119.386 17.792 118.242 18 117.01 18H112.618ZM110.386 18V1.128H113.65V18H110.386ZM133.043 18.24C131.827 18.24 130.747 17.984 129.803 17.472C128.859 16.944 128.107 16.224 127.547 15.312C127.003 14.4 126.731 13.36 126.731 12.192C126.731 11.04 126.995 10.016 127.523 9.12C128.067 8.208 128.803 7.488 129.731 6.96C130.659 6.416 131.691 6.144 132.827 6.144C133.947 6.144 134.931 6.4 135.779 6.912C136.643 7.408 137.315 8.096 137.795 8.976C138.291 9.84 138.539 10.824 138.539 11.928C138.539 12.136 138.523 12.352 138.491 12.576C138.475 12.784 138.435 13.024 138.371 13.296L128.627 13.32V10.968L136.907 10.944L135.635 11.928C135.603 11.24 135.475 10.664 135.251 10.2C135.043 9.736 134.731 9.384 134.315 9.144C133.915 8.888 133.419 8.76 132.827 8.76C132.203 8.76 131.659 8.904 131.195 9.192C130.731 9.464 130.371 9.856 130.115 10.368C129.875 10.864 129.755 11.456 129.755 12.144C129.755 12.848 129.883 13.464 130.139 13.992C130.411 14.504 130.795 14.904 131.291 15.192C131.787 15.464 132.363 15.6 133.019 15.6C133.611 15.6 134.147 15.504 134.627 15.312C135.107 15.104 135.523 14.8 135.875 14.4L137.723 16.248C137.163 16.904 136.475 17.4 135.659 17.736C134.859 18.072 133.987 18.24 133.043 18.24ZM143.584 18L138.472 6.408H141.928L145.6 15.96H143.896L147.592 6.408H150.928L145.84 18H143.584ZM157.091 18.24C155.875 18.24 154.795 17.984 153.851 17.472C152.907 16.944 152.155 16.224 151.595 15.312C151.051 14.4 150.779 13.36 150.779 12.192C150.779 11.04 151.043 10.016 151.571 9.12C152.115 8.208 152.851 7.488 153.779 6.96C154.707 6.416 155.739 6.144 156.875 6.144C157.995 6.144 158.979 6.4 159.827 6.912C160.691 7.408 161.363 8.096 161.843 8.976C162.339 9.84 162.587 10.824 162.587 11.928C162.587 12.136 162.571 12.352 162.539 12.576C162.523 12.784 162.483 13.024 162.419 13.296L152.675 13.32V10.968L160.955 10.944L159.683 11.928C159.651 11.24 159.523 10.664 159.299 10.2C159.091 9.736 158.779 9.384 158.363 9.144C157.963 8.888 157.467 8.76 156.875 8.76C156.251 8.76 155.707 8.904 155.243 9.192C154.779 9.464 154.419 9.856 154.163 10.368C153.923 10.864 153.803 11.456 153.803 12.144C153.803 12.848 153.931 13.464 154.187 13.992C154.459 14.504 154.843 14.904 155.339 15.192C155.835 15.464 156.411 15.6 157.067 15.6C157.659 15.6 158.195 15.504 158.675 15.312C159.155 15.104 159.571 14.8 159.923 14.4L161.771 16.248C161.211 16.904 160.523 17.4 159.707 17.736C158.907 18.072 158.035 18.24 157.091 18.24ZM164.051 18V0.647999H167.195V18H164.051ZM174.949 18.24C173.781 18.24 172.725 17.976 171.781 17.448C170.853 16.904 170.109 16.176 169.549 15.264C169.005 14.336 168.733 13.304 168.733 12.168C168.733 11.032 169.005 10.016 169.549 9.12C170.093 8.208 170.837 7.488 171.781 6.96C172.725 6.416 173.773 6.144 174.925 6.144C176.109 6.144 177.165 6.416 178.093 6.96C179.037 7.488 179.781 8.208 180.325 9.12C180.869 10.016 181.141 11.032 181.141 12.168C181.141 13.304 180.869 14.336 180.325 15.264C179.781 16.176 179.037 16.904 178.093 17.448C177.165 17.976 176.117 18.24 174.949 18.24ZM174.925 15.312C175.517 15.312 176.037 15.184 176.485 14.928C176.949 14.656 177.301 14.288 177.541 13.824C177.797 13.344 177.925 12.8 177.925 12.192C177.925 11.584 177.797 11.048 177.541 10.584C177.285 10.12 176.933 9.76 176.485 9.504C176.037 9.232 175.517 9.096 174.925 9.096C174.349 9.096 173.837 9.232 173.389 9.504C172.941 9.76 172.589 10.12 172.333 10.584C172.077 11.048 171.949 11.584 171.949 12.192C171.949 12.8 172.077 13.344 172.333 13.824C172.589 14.288 172.941 14.656 173.389 14.928C173.837 15.184 174.349 15.312 174.925 15.312ZM189.117 18.24C188.285 18.24 187.533 18.072 186.861 17.736C186.189 17.384 185.653 16.912 185.253 16.32C184.853 15.728 184.637 15.048 184.605 14.28V10.176C184.637 9.408 184.853 8.728 185.253 8.136C185.669 7.528 186.205 7.048 186.861 6.696C187.533 6.344 188.285 6.168 189.117 6.168C190.189 6.168 191.149 6.432 191.997 6.96C192.845 7.488 193.509 8.208 193.989 9.12C194.485 10.032 194.733 11.064 194.733 12.216C194.733 13.352 194.485 14.376 193.989 15.288C193.509 16.2 192.845 16.92 191.997 17.448C191.149 17.976 190.189 18.24 189.117 18.24ZM182.685 22.848V6.408H185.829V9.456L185.301 12.264L185.805 15.072V22.848H182.685ZM188.565 15.336C189.141 15.336 189.653 15.208 190.101 14.952C190.549 14.68 190.893 14.312 191.133 13.848C191.389 13.368 191.517 12.816 191.517 12.192C191.517 11.584 191.389 11.048 191.133 10.584C190.893 10.104 190.549 9.736 190.101 9.48C189.653 9.208 189.141 9.072 188.565 9.072C188.005 9.072 187.501 9.208 187.053 9.48C186.605 9.736 186.253 10.104 185.997 10.584C185.757 11.048 185.637 11.584 185.637 12.192C185.637 12.816 185.757 13.368 185.997 13.848C186.253 14.312 186.597 14.68 187.029 14.952C187.477 15.208 187.989 15.336 188.565 15.336ZM201.859 18.24C200.643 18.24 199.563 17.984 198.619 17.472C197.675 16.944 196.923 16.224 196.363 15.312C195.819 14.4 195.547 13.36 195.547 12.192C195.547 11.04 195.811 10.016 196.339 9.12C196.883 8.208 197.619 7.488 198.547 6.96C199.475 6.416 200.507 6.144 201.643 6.144C202.763 6.144 203.747 6.4 204.595 6.912C205.459 7.408 206.131 8.096 206.611 8.976C207.107 9.84 207.355 10.824 207.355 11.928C207.355 12.136 207.339 12.352 207.307 12.576C207.291 12.784 207.251 13.024 207.187 13.296L197.443 13.32V10.968L205.723 10.944L204.451 11.928C204.419 11.24 204.291 10.664 204.067 10.2C203.859 9.736 203.547 9.384 203.131 9.144C202.731 8.888 202.235 8.76 201.643 8.76C201.019 8.76 200.475 8.904 200.011 9.192C199.547 9.464 199.187 9.856 198.931 10.368C198.691 10.864 198.571 11.456 198.571 12.144C198.571 12.848 198.699 13.464 198.955 13.992C199.227 14.504 199.611 14.904 200.107 15.192C200.603 15.464 201.179 15.6 201.835 15.6C202.427 15.6 202.963 15.504 203.443 15.312C203.923 15.104 204.339 14.8 204.691 14.4L206.539 16.248C205.979 16.904 205.291 17.4 204.475 17.736C203.675 18.072 202.803 18.24 201.859 18.24ZM208.819 18V6.408H211.963V18H208.819ZM211.963 11.592L210.739 10.776C210.883 9.352 211.299 8.232 211.987 7.416C212.675 6.584 213.667 6.168 214.963 6.168C215.523 6.168 216.027 6.264 216.475 6.456C216.923 6.632 217.331 6.928 217.699 7.344L215.731 9.6C215.555 9.408 215.339 9.264 215.083 9.168C214.843 9.072 214.563 9.024 214.243 9.024C213.571 9.024 213.019 9.24 212.587 9.672C212.171 10.088 211.963 10.728 211.963 11.592Z" fill="url(#paint0_linear_302_13021)"/>
<defs>
<linearGradient id="paint0_linear_302_13021" x1="-1" y1="-1" x2="246" y2="-1" gradientUnits="userSpaceOnUse">
<stop stop-color="#A478E8"/>
<stop offset="1" stop-color="#516CF7"/>
</linearGradient>
</defs>
</svg>
