<svg width="165" height="24" viewBox="0 0 165 24" fill="none" xmlns="http://www.w3.org/2000/svg">
<path d="M5.088 18.24C4.064 18.24 3.16 18.048 2.376 17.664C1.608 17.264 0.968 16.728 0.456 16.056L2.664 13.944C2.952 14.36 3.296 14.68 3.696 14.904C4.112 15.112 4.568 15.216 5.064 15.216C5.56 15.216 5.992 15.112 6.36 14.904C6.744 14.696 7.032 14.392 7.224 13.992C7.432 13.592 7.536 13.104 7.536 12.528V1.128H10.824V12.336C10.824 13.52 10.584 14.56 10.104 15.456C9.64 16.336 8.976 17.024 8.112 17.52C7.264 18 6.256 18.24 5.088 18.24ZM18.6647 18.24C17.4967 18.24 16.4407 17.976 15.4967 17.448C14.5687 16.904 13.8247 16.176 13.2647 15.264C12.7207 14.336 12.4487 13.304 12.4487 12.168C12.4487 11.032 12.7207 10.016 13.2647 9.12C13.8087 8.208 14.5527 7.488 15.4967 6.96C16.4407 6.416 17.4887 6.144 18.6407 6.144C19.8247 6.144 20.8807 6.416 21.8087 6.96C22.7527 7.488 23.4967 8.208 24.0407 9.12C24.5847 10.016 24.8567 11.032 24.8567 12.168C24.8567 13.304 24.5847 14.336 24.0407 15.264C23.4967 16.176 22.7527 16.904 21.8087 17.448C20.8807 17.976 19.8327 18.24 18.6647 18.24ZM18.6407 15.312C19.2327 15.312 19.7527 15.184 20.2007 14.928C20.6647 14.656 21.0167 14.288 21.2567 13.824C21.5127 13.344 21.6407 12.8 21.6407 12.192C21.6407 11.584 21.5127 11.048 21.2567 10.584C21.0007 10.12 20.6487 9.76 20.2007 9.504C19.7527 9.232 19.2327 9.096 18.6407 9.096C18.0647 9.096 17.5527 9.232 17.1047 9.504C16.6567 9.76 16.3047 10.12 16.0487 10.584C15.7927 11.048 15.6647 11.584 15.6647 12.192C15.6647 12.8 15.7927 13.344 16.0487 13.824C16.3047 14.288 16.6567 14.656 17.1047 14.928C17.5527 15.184 18.0647 15.312 18.6407 15.312ZM31.2488 18.24C30.1928 18.24 29.2408 17.976 28.3928 17.448C27.5448 16.92 26.8808 16.2 26.4008 15.288C25.9208 14.376 25.6808 13.352 25.6808 12.216C25.6808 11.064 25.9208 10.032 26.4008 9.12C26.8808 8.208 27.5448 7.488 28.3928 6.96C29.2408 6.432 30.1928 6.168 31.2488 6.168C32.0808 6.168 32.8248 6.336 33.4808 6.672C34.1368 7.008 34.6568 7.48 35.0408 8.088C35.4408 8.68 35.6568 9.352 35.6888 10.104V14.28C35.6568 15.048 35.4408 15.728 35.0408 16.32C34.6568 16.912 34.1368 17.384 33.4808 17.736C32.8248 18.072 32.0808 18.24 31.2488 18.24ZM31.8248 15.336C32.7048 15.336 33.4168 15.048 33.9608 14.472C34.5048 13.88 34.7768 13.12 34.7768 12.192C34.7768 11.584 34.6488 11.048 34.3928 10.584C34.1528 10.104 33.8088 9.736 33.3608 9.48C32.9288 9.208 32.4168 9.072 31.8248 9.072C31.2488 9.072 30.7368 9.208 30.2888 9.48C29.8568 9.736 29.5128 10.104 29.2568 10.584C29.0168 11.048 28.8968 11.584 28.8968 12.192C28.8968 12.816 29.0168 13.368 29.2568 13.848C29.5128 14.312 29.8568 14.68 30.2888 14.952C30.7368 15.208 31.2488 15.336 31.8248 15.336ZM34.6088 18V14.88L35.1128 12.048L34.6088 9.264V6.408H37.7288V18H34.6088ZM47.4221 18L42.9341 12.024L47.3981 6.408H51.0221L45.7901 12.744L45.9101 11.208L51.2621 18H47.4221ZM40.0301 18V0.647999H43.1741V18H40.0301ZM51.8079 18V6.408H54.9759V18H51.8079ZM53.3919 4.536C52.8799 4.536 52.4559 4.368 52.1199 4.032C51.7839 3.68 51.6159 3.248 51.6159 2.736C51.6159 2.24 51.7839 1.816 52.1199 1.464C52.4559 1.112 52.8799 0.935999 53.3919 0.935999C53.9199 0.935999 54.3439 1.112 54.6639 1.464C54.9999 1.816 55.1679 2.24 55.1679 2.736C55.1679 3.248 54.9999 3.68 54.6639 4.032C54.3439 4.368 53.9199 4.536 53.3919 4.536ZM57.2811 18V6.408H60.4251V18H57.2811ZM64.8411 18V11.16C64.8411 10.488 64.6251 9.968 64.1931 9.6C63.7771 9.216 63.2571 9.024 62.6331 9.024C62.2171 9.024 61.8411 9.112 61.5051 9.288C61.1691 9.448 60.9051 9.688 60.7131 10.008C60.5211 10.328 60.4251 10.712 60.4251 11.16L59.2011 10.56C59.2011 9.664 59.3931 8.888 59.7771 8.232C60.1771 7.576 60.7131 7.072 61.3851 6.72C62.0571 6.352 62.8171 6.168 63.6651 6.168C64.4651 6.168 65.1931 6.352 65.8491 6.72C66.5051 7.072 67.0251 7.576 67.4091 8.232C67.7931 8.872 67.9851 9.648 67.9851 10.56V18H64.8411ZM72.4011 18V11.16C72.4011 10.488 72.1851 9.968 71.7531 9.6C71.3371 9.216 70.8171 9.024 70.1931 9.024C69.7931 9.024 69.4171 9.112 69.0651 9.288C68.7291 9.448 68.4651 9.688 68.2731 10.008C68.0811 10.328 67.9851 10.712 67.9851 11.16L66.1851 10.728C66.2491 9.8 66.4971 9 66.9291 8.328C67.3611 7.64 67.9291 7.112 68.6331 6.744C69.3371 6.36 70.1211 6.168 70.9851 6.168C71.8491 6.168 72.6251 6.352 73.3131 6.72C74.0011 7.072 74.5451 7.584 74.9451 8.256C75.3451 8.928 75.5451 9.728 75.5451 10.656V18H72.4011ZM82.1571 18V1.128H85.4211V18H82.1571ZM92.7411 18V1.128H96.0051V18H92.7411ZM84.2211 10.728V7.848H93.6531V10.728H84.2211ZM104.182 18.24C102.966 18.24 101.886 17.984 100.942 17.472C99.9979 16.944 99.2459 16.224 98.6859 15.312C98.1419 14.4 97.8699 13.36 97.8699 12.192C97.8699 11.04 98.1339 10.016 98.6619 9.12C99.2059 8.208 99.9419 7.488 100.87 6.96C101.798 6.416 102.83 6.144 103.966 6.144C105.086 6.144 106.07 6.4 106.918 6.912C107.782 7.408 108.454 8.096 108.934 8.976C109.43 9.84 109.678 10.824 109.678 11.928C109.678 12.136 109.662 12.352 109.63 12.576C109.614 12.784 109.574 13.024 109.51 13.296L99.7659 13.32V10.968L108.046 10.944L106.774 11.928C106.742 11.24 106.614 10.664 106.39 10.2C106.182 9.736 105.87 9.384 105.454 9.144C105.054 8.888 104.558 8.76 103.966 8.76C103.342 8.76 102.798 8.904 102.334 9.192C101.87 9.464 101.51 9.856 101.254 10.368C101.014 10.864 100.894 11.456 100.894 12.144C100.894 12.848 101.022 13.464 101.278 13.992C101.55 14.504 101.934 14.904 102.43 15.192C102.926 15.464 103.502 15.6 104.158 15.6C104.75 15.6 105.286 15.504 105.766 15.312C106.246 15.104 106.662 14.8 107.014 14.4L108.862 16.248C108.302 16.904 107.614 17.4 106.798 17.736C105.998 18.072 105.126 18.24 104.182 18.24ZM111.142 18V0.647999H114.286V18H111.142ZM121.44 23.136C120.208 23.136 119.12 22.912 118.176 22.464C117.232 22.032 116.48 21.416 115.92 20.616L117.912 18.624C118.36 19.152 118.856 19.552 119.4 19.824C119.96 20.112 120.632 20.256 121.416 20.256C122.392 20.256 123.16 20.008 123.72 19.512C124.296 19.016 124.584 18.328 124.584 17.448V14.544L125.112 12L124.608 9.456V6.408H127.728V17.4C127.728 18.552 127.456 19.552 126.912 20.4C126.384 21.264 125.648 21.936 124.704 22.416C123.76 22.896 122.672 23.136 121.44 23.136ZM121.296 17.688C120.256 17.688 119.32 17.44 118.488 16.944C117.656 16.432 117 15.736 116.52 14.856C116.056 13.976 115.824 12.992 115.824 11.904C115.824 10.816 116.056 9.84 116.52 8.976C117 8.112 117.656 7.432 118.488 6.936C119.32 6.424 120.256 6.168 121.296 6.168C122.16 6.168 122.92 6.336 123.576 6.672C124.248 7.008 124.776 7.472 125.16 8.064C125.544 8.64 125.752 9.32 125.784 10.104V13.752C125.752 14.52 125.536 15.208 125.136 15.816C124.752 16.408 124.224 16.872 123.552 17.208C122.896 17.528 122.144 17.688 121.296 17.688ZM121.92 14.832C122.496 14.832 122.992 14.712 123.408 14.472C123.84 14.216 124.176 13.872 124.416 13.44C124.656 12.992 124.776 12.488 124.776 11.928C124.776 11.352 124.656 10.848 124.416 10.416C124.176 9.984 123.84 9.648 123.408 9.408C122.992 9.152 122.496 9.024 121.92 9.024C121.344 9.024 120.84 9.152 120.408 9.408C119.976 9.648 119.64 9.992 119.4 10.44C119.16 10.872 119.04 11.368 119.04 11.928C119.04 12.472 119.16 12.968 119.4 13.416C119.64 13.848 119.976 14.192 120.408 14.448C120.84 14.704 121.344 14.832 121.92 14.832ZM135.458 18.24C134.29 18.24 133.234 17.976 132.29 17.448C131.362 16.904 130.618 16.176 130.058 15.264C129.514 14.336 129.242 13.304 129.242 12.168C129.242 11.032 129.514 10.016 130.058 9.12C130.602 8.208 131.346 7.488 132.29 6.96C133.234 6.416 134.282 6.144 135.434 6.144C136.618 6.144 137.674 6.416 138.602 6.96C139.546 7.488 140.29 8.208 140.834 9.12C141.378 10.016 141.65 11.032 141.65 12.168C141.65 13.304 141.378 14.336 140.834 15.264C140.29 16.176 139.546 16.904 138.602 17.448C137.674 17.976 136.626 18.24 135.458 18.24ZM135.434 15.312C136.026 15.312 136.546 15.184 136.994 14.928C137.458 14.656 137.81 14.288 138.05 13.824C138.306 13.344 138.434 12.8 138.434 12.192C138.434 11.584 138.306 11.048 138.05 10.584C137.794 10.12 137.442 9.76 136.994 9.504C136.546 9.232 136.026 9.096 135.434 9.096C134.858 9.096 134.346 9.232 133.898 9.504C133.45 9.76 133.098 10.12 132.842 10.584C132.586 11.048 132.458 11.584 132.458 12.192C132.458 12.8 132.586 13.344 132.842 13.824C133.098 14.288 133.45 14.656 133.898 14.928C134.346 15.184 134.858 15.312 135.434 15.312ZM148.091 18.24C147.019 18.24 146.059 17.976 145.211 17.448C144.363 16.92 143.691 16.2 143.195 15.288C142.715 14.376 142.475 13.352 142.475 12.216C142.475 11.064 142.715 10.032 143.195 9.12C143.691 8.208 144.355 7.488 145.187 6.96C146.035 6.432 147.003 6.168 148.091 6.168C148.923 6.168 149.667 6.336 150.323 6.672C150.995 7.008 151.531 7.48 151.931 8.088C152.347 8.68 152.571 9.352 152.603 10.104V14.232C152.571 14.984 152.355 15.664 151.955 16.272C151.555 16.88 151.019 17.36 150.347 17.712C149.675 18.064 148.923 18.24 148.091 18.24ZM148.619 15.336C149.211 15.336 149.723 15.208 150.155 14.952C150.603 14.68 150.947 14.312 151.187 13.848C151.443 13.368 151.571 12.816 151.571 12.192C151.571 11.584 151.443 11.048 151.187 10.584C150.947 10.104 150.603 9.736 150.155 9.48C149.723 9.208 149.219 9.072 148.643 9.072C148.051 9.072 147.531 9.208 147.083 9.48C146.651 9.752 146.307 10.12 146.051 10.584C145.811 11.048 145.691 11.584 145.691 12.192C145.691 12.816 145.811 13.368 146.051 13.848C146.307 14.312 146.659 14.68 147.107 14.952C147.555 15.208 148.059 15.336 148.619 15.336ZM154.523 18H151.403V14.88L151.907 12.048L151.379 9.264V0.647999H154.523V18ZM158.528 18V1.584H161.672V18H158.528ZM155.816 9.168V6.408H164.384V9.168H155.816Z" fill="#2E2E48"/>
</svg>
